<svg width="16" height="16" xmlns="http://www.w3.org/2000/svg">
    <path fill="#008"
          d="m7.98365,1.39651c-1.07983,1.07638 -1.50048,2.54562 -1.29849,3.94332l2.00192,-1.99434c0.00256,-0.00319 0.00898,-0.00511 0.01026,-0.00767c0.13466,-0.25744 0.29753,-0.50401 0.51427,-0.71929c1.13754,-1.13451 2.98236,-1.13387 4.12182,0c1.13818,1.1326 1.13946,2.97171 0.00128,4.10686c-0.21802,0.21719 -0.46617,0.37881 -0.72523,0.5136c-0.00256,0.00128 -0.00385,0.00383 -0.00641,0.00639l-2.00256,1.99498c1.40301,0.20186 2.8804,-0.21719 3.96023,-1.2923c1.81596,-1.80909 1.81468,-4.74183 0,-6.55091c-1.81724,-1.80909 -4.76113,-1.80909 -6.57709,-0.00064zm-0.71176,11.15731c-0.13402,0.25871 -0.29625,0.50529 -0.51362,0.72248c-1.13818,1.13323 -2.98556,1.13323 -4.12375,0c-1.13818,-1.13323 -1.13818,-2.97234 0,-4.1075c0.21738,-0.21591 0.46489,-0.37753 0.72331,-0.51104c0.00256,-0.00383 0.00321,-0.00767 0.00705,-0.01022l2.00128,-1.99498c-1.40237,-0.20186 -2.87848,0.21847 -3.95767,1.29293c-1.81532,1.80845 -1.81468,4.74183 0,6.55091c1.8166,1.80845 4.76049,1.80845 6.57709,0c1.07983,-1.07574 1.50176,-2.54626 1.29721,-3.9446l-2.00384,1.99498c-0.00192,0.00447 -0.00449,0.00575 -0.00705,0.00703zm-3.28053,-2.03267l1.40878,1.40345c0.34434,0.34304 0.90862,0.34304 1.25232,0l5.32349,-5.30333c0.34562,-0.3424 0.34562,-0.90518 0.00128,-1.24694l-1.41006,-1.40345c-0.3437,-0.34431 -0.90798,-0.34431 -1.25168,-0.00128l-5.32349,5.30397c-0.34498,0.34304 -0.34498,0.90518 -0.00064,1.24758z"
    />
</svg>